<svg xmlns="http://www.w3.org/2000/svg" xmlns:xlink="http://www.w3.org/1999/xlink" width="500" zoomAndPan="magnify" viewBox="0 0 375 374.999991" height="500" preserveAspectRatio="xMidYMid meet" version="1.0"><defs><clipPath id="9fcc9248da"><path d="M 149 99 L 343.5 99 L 343.5 275.855469 L 149 275.855469 Z M 149 99 " clip-rule="nonzero"/></clipPath><clipPath id="d1f33dfd7b"><path d="M 37.5 99 L 232 99 L 232 275.855469 L 37.5 275.855469 Z M 37.5 99 " clip-rule="nonzero"/></clipPath></defs><g clip-path="url(#9fcc9248da)"><path fill="#ffffff" d="M 302.453125 99.261719 L 282.078125 134.566406 L 271.882812 152.21875 L 261.703125 169.863281 L 251.496094 187.515625 L 241.316406 205.167969 L 231.121094 222.820312 L 220.929688 240.472656 L 200.539062 240.472656 L 190.347656 222.820312 L 180.164062 205.167969 L 169.972656 187.527344 L 159.777344 205.167969 L 149.59375 222.820312 L 159.789062 240.472656 L 169.972656 258.113281 L 180.164062 275.769531 L 241.316406 275.769531 L 251.496094 258.128906 L 261.691406 240.472656 L 271.882812 222.820312 L 282.078125 205.167969 L 292.261719 187.515625 L 302.453125 169.863281 L 322.832031 134.566406 L 343.214844 99.261719 Z M 302.453125 99.261719 " fill-opacity="1" fill-rule="nonzero"/></g><g clip-path="url(#d1f33dfd7b)"><path fill="#38b6ff" d="M 159.777344 134.566406 L 180.164062 134.566406 L 190.359375 152.210938 L 200.539062 169.863281 L 210.734375 187.515625 L 220.929688 169.863281 L 231.109375 152.210938 L 220.929688 134.566406 L 200.539062 99.261719 L 139.414062 99.261719 L 129.207031 116.925781 L 119.027344 134.566406 L 108.832031 152.21875 L 98.648438 169.863281 L 88.457031 187.515625 L 78.261719 205.167969 L 68.070312 222.820312 L 57.875 240.472656 L 47.683594 258.128906 L 37.5 275.769531 L 78.261719 275.769531 L 88.445312 258.113281 L 98.636719 240.472656 L 119.027344 205.167969 L 129.207031 187.515625 L 139.402344 169.863281 L 149.59375 152.21875 Z M 159.777344 134.566406 " fill-opacity="1" fill-rule="nonzero"/></g></svg>